<?xml version="1.0" encoding="UTF-8"?> <!-- Generator: Adobe Illustrator 22.0.1, SVG Export Plug-In . SVG Version: 6.00 Build 0) --> <svg xmlns="http://www.w3.org/2000/svg" xmlns:xlink="http://www.w3.org/1999/xlink" x="0px" y="0px" viewBox="0 0 18.5 18.5" style="enable-background:new 0 0 18.5 18.5;" xml:space="preserve"> <style type="text/css"> .st0{display:none;} .st1{display:inline;} .st2{opacity:0.4;fill:#FFC6C6;} .st3{fill:#0067C7;} .st4{fill:#E33155;} .st5{fill:#75C24B;} .st6{fill:#FFB029;} .st7{fill:#720FC8;} .st8{opacity:0.9;} .st9{fill:none;stroke:#FFFFFF;stroke-width:1.6052;stroke-linecap:round;stroke-miterlimit:10;} .st10{fill:none;stroke:#FFFFFF;stroke-width:1.6052;stroke-linecap:round;stroke-linejoin:round;stroke-miterlimit:10;} .st11{fill:none;stroke:#000000;stroke-width:1.6052;stroke-linecap:round;stroke-linejoin:round;stroke-miterlimit:10;} .st12{stroke:#FFFFFF;stroke-width:1.6052;stroke-linecap:round;stroke-linejoin:round;stroke-miterlimit:10;} .st13{fill:none;stroke:#FFFFFF;stroke-width:1.4505;stroke-linecap:round;stroke-miterlimit:10;} .st14{fill:none;stroke:#000000;stroke-width:2;stroke-linecap:round;stroke-miterlimit:10;} .st15{fill:none;stroke:#000000;stroke-width:2;stroke-linecap:round;stroke-linejoin:round;stroke-miterlimit:10;} .st16{fill:none;stroke:#000000;stroke-width:2;stroke-linecap:round;stroke-linejoin:round;stroke-dasharray:0,5;} .st17{fill:none;stroke:#000000;stroke-width:2;stroke-linecap:round;stroke-linejoin:round;} .st18{fill:none;stroke:#000000;stroke-width:2;stroke-miterlimit:10;} .st19{stroke:#000000;stroke-width:2;stroke-linecap:round;stroke-linejoin:round;stroke-miterlimit:10;} .st20{opacity:0.1;fill:none;stroke:#000000;stroke-width:2;stroke-linecap:round;stroke-linejoin:round;stroke-miterlimit:10;} .st21{fill:#FFFFFF;stroke:#000000;stroke-width:2;stroke-linecap:round;stroke-linejoin:round;stroke-miterlimit:10;} .st22{fill:none;stroke:#000000;stroke-width:2;stroke-linecap:round;stroke-linejoin:round;stroke-miterlimit:10;stroke-dasharray:3,4;} .st23{fill:none;stroke:#000000;stroke-width:2;stroke-linecap:round;stroke-linejoin:round;stroke-dasharray:2,4;} .st24{fill:none;stroke:#100500;stroke-width:2;stroke-miterlimit:10;} .st25{fill:none;stroke:#100500;stroke-width:2;stroke-linecap:round;stroke-linejoin:round;stroke-miterlimit:10;} .st26{fill:none;stroke:#000000;stroke-width:2;stroke-linejoin:round;stroke-miterlimit:10;} .st27{fill-rule:evenodd;clip-rule:evenodd;fill:none;stroke:#000000;stroke-width:2;stroke-linecap:round;stroke-linejoin:round;stroke-miterlimit:10;} .st28{fill:none;stroke:#000000;stroke-width:3;stroke-linecap:round;stroke-linejoin:round;stroke-miterlimit:10;} .st29{fill:#848484;} </style> <g id="Grid" class="st0"> </g> <g id="Layer_25"> </g> <g id="Layer_26"> </g> <g id="Misc"> <g id="Titles"> </g> <g id="Essentials__x2F__Interface"> </g> <g id="Arrows"> </g> <g id="Communication"> </g> <g id="Files__x2F__Folders"> </g> <g id="Users"> </g> <g id="Photo__x2F__Audio__x2F__Video"> </g> <g id="Editorial__x2F__Content"> </g> <g id="Devices__x2F__Technology"> </g> <g id="Network__x2F__Transfers"> </g> <g id="Web__x2F__Programing"> </g> <g id="Design"> </g> <g id="E-Commerce__x2F__Shopping"> </g> <g id="Finance__x2F__Business"> </g> <g id="Education__x2F__Science"> </g> <g id="Time__x2F__Map__x2F__Location"> </g> <g id="Transportation"> </g> <g id="Votes__x2F__Rewards"> </g> <g id="Health__x2F__Medicine"> </g> <g id="Food__x2F__Cooking"> </g> <g id="Social_Media__x2F__Brands"> <g> <path class="st29" d="M7.8,8.7c0.3-0.2,0.6-0.4,0.8-0.6C8.9,7.8,9,7.3,9,6.7c0-0.6-0.2-1.1-0.5-1.6C8,4.4,7.2,4.1,5.9,4h-5v10.2 h4.6c0.5,0,1,0,1.5-0.1c0.4-0.1,0.8-0.3,1.2-0.5c0.3-0.2,0.5-0.5,0.7-0.8c0.3-0.5,0.5-1,0.5-1.6c0-0.6-0.1-1.1-0.4-1.5 C8.7,9.2,8.3,8.9,7.8,8.7L7.8,8.7z M3,5.8h2.2c0.5,0,0.9,0.1,1.2,0.2C6.8,6.1,7,6.4,7,6.9c0,0.4-0.1,0.7-0.4,0.9 C6.3,8,5.9,8,5.5,8H3V5.8z M6.5,12.3c-0.2,0.1-0.6,0.2-1,0.2H3V9.7h2.5c0.4,0,0.8,0.1,1,0.2C7,10.1,7.2,10.5,7.2,11 C7.2,11.6,7,12,6.5,12.3L6.5,12.3z M6.5,12.3"></path> <rect x="11.6" y="4.5" class="st29" width="4.4" height="1.3"></rect> <path class="st29" d="M17.5,9.5c-0.1-0.6-0.3-1.1-0.6-1.6c-0.3-0.5-0.8-0.9-1.3-1.1c-0.5-0.2-1.1-0.4-1.8-0.4c-1.1,0-2,0.3-2.7,1 c-0.7,0.7-1,1.7-1,3c0,1.4,0.4,2.4,1.2,3c0.8,0.6,1.7,0.9,2.7,0.9c1.2,0,2.2-0.4,2.9-1.1c0.4-0.5,0.7-0.9,0.7-1.4h-2 c-0.1,0.2-0.3,0.4-0.4,0.5c-0.3,0.2-0.7,0.3-1.1,0.3c-0.4,0-0.8-0.1-1.1-0.3c-0.5-0.3-0.8-0.8-0.8-1.6h5.5 C17.6,10.3,17.6,9.8,17.5,9.5L17.5,9.5z M12.1,9.7c0.1-0.5,0.3-0.9,0.5-1.2c0.3-0.3,0.7-0.4,1.2-0.4c0.5,0,0.9,0.1,1.2,0.4 c0.3,0.3,0.5,0.7,0.5,1.2H12.1z M12.1,9.7"></path> </g> </g> <g id="Objects__x2F__Tools"> </g> </g> </svg> 