<?xml version="1.0" ?><!DOCTYPE svg  PUBLIC '-//W3C//DTD SVG 1.1//EN'  'http://www.w3.org/Graphics/SVG/1.1/DTD/svg11.dtd'><svg height="2048px" style="shape-rendering:geometricPrecision; text-rendering:geometricPrecision; image-rendering:optimizeQuality; fill-rule:evenodd; clip-rule:evenodd" viewBox="0 0 2048 2048" width="2048px" xml:space="preserve" xmlns="http://www.w3.org/2000/svg" xmlns:xlink="http://www.w3.org/1999/xlink"><defs><style type="text/css">
   <![CDATA[
    .fil1 {fill:none}
    .fil0 {fill:#424242}
   ]]>
  </style></defs><g id="Layer_x0020_1"><g id="_333143736"><path class="fil0" d="M863.415 373.122c-0.664961,0.0862205 -1.23898,0.255118 -1.81417,0.338977 1.06536,-0.252756 1.66299,-0.338977 1.66299,-0.338977l0.151181 0z" id="_333144480"/><path class="fil0" d="M611.933 1552.46l0.0850394 -0.236221c-4.90985,-3.92363 -10.3276,-7.51064 -15.1654,-11.5193 8.91261,7.0819 15.0803,11.7555 15.0803,11.7555z" id="_333144096"/><path class="fil0" d="M1043.31 829.762c-91.839,-187.34 -198.907,-358.612 -323.929,-510.937 -89.602,38.7603 -170.362,94.0973 -238.409,162.145 -119.913,119.91 -200.358,279.292 -220.169,456.981 272.478,-11.1083 505.803,-24.2906 715.821,-86.4674 22.4776,-6.65552 44.7012,-13.8756 66.6875,-21.7217z" id="_333144120"/><path class="fil0" d="M1075.39 817.799c170.677,-66.4312 327.468,-173.023 480.331,-347.908 -137.988,-132.449 -325.348,-213.856 -531.724,-213.856 -95.6387,0 -187.197,17.4839 -271.649,49.4292 124.647,153.304 231.432,325.005 323.042,512.335z" id="_333144792"/><path class="fil0" d="M1791.97 1024l0 0zm0.0673229 -0.011811c-0.00354331,-205.435 -80.7379,-392.073 -212.218,-529.928 -155.666,177.605 -315.548,286.382 -489.578,354.508 13.7421,28.8709 27.1323,58.1044 40.1823,87.6898 15.7335,35.6681 30.9733,71.8489 45.7359,108.524 205.049,-50.9457 414.913,-30.9331 614.141,30.2634 1.10669,-16.8721 1.67008,-33.8941 1.67008,-51.0579l0.0673229 0z" id="_333144216"/><path class="fil0" d="M1099.22 949.987c-13.311,-30.1772 -26.9764,-59.9788 -41.0067,-89.3953 -23.7225,8.53701 -47.7118,16.3654 -71.9965,23.5547 -214.845,63.6071 -451.706,76.7363 -728.462,87.9804 -1.14449,17.1414 -1.72441,34.4386 -1.72441,51.8705 0,212.033 85.969,404.035 224.956,543.023 3.70394,3.70394 7.44331,7.3689 11.2217,10.9961 170.863,-262.421 365.901,-418.067 569.242,-496.909 27.0508,-10.4894 54.2398,-19.6146 81.5292,-27.4488 -14.1425,-35.0221 -28.7244,-69.5847 -43.7599,-103.671z" id="_333143760"/><path class="fil0" d="M1350.67 1719.21c-53.0918,-223.742 -117.23,-435.913 -195.027,-633.771 -27.4358,7.75985 -54.7583,16.8685 -81.926,27.4028 -198.143,76.826 -388.63,229.713 -556.032,488.566 135.174,118.63 312.349,190.563 506.314,190.563 116.817,0 227.542,-26.0918 326.671,-72.7607zm-750.218 -175.658c-1.22362,-0.933072 -2.42835,-1.87914 -3.6,-2.84882 1.25787,0.999213 2.46142,1.95118 3.6,2.84882zm11.5654 8.67048l-0.0850394 0.236221c0,0 -4.54843,-3.44882 -11.4803,-8.9067 3.8315,2.91614 7.84371,5.69646 11.5654,8.67048z" id="_333143856"/><path class="fil0" d="M1567.01 1567.02c119.992,-119.993 200.469,-279.502 220.224,-457.301 -194.314,-60.7052 -398.919,-81.4678 -598.397,-33.0047 76.8414,196.034 140.393,405.854 193.153,626.863 68.4438,-36.1359 130.771,-82.3087 185.02,-136.558z" id="_333143352"/></g></g><rect class="fil1" height="2048" width="2048"/></svg>